<svg xmlns="http://www.w3.org/2000/svg" xmlns:xlink="http://www.w3.org/1999/xlink" width="1080" zoomAndPan="magnify" viewBox="0 0 810 809.999993" height="1080" preserveAspectRatio="xMidYMid meet" version="1.0"><defs><g/><clipPath id="c1100efd66"><path d="M 0.0898438 0.511719 L 788.488281 0.511719 L 788.488281 788.910156 L 0.0898438 788.910156 Z M 0.0898438 0.511719 " clip-rule="nonzero"/></clipPath><clipPath id="8301aed110"><path d="M 394.289062 0.511719 C 176.578125 0.511719 0.0898438 177 0.0898438 394.710938 C 0.0898438 612.421875 176.578125 788.910156 394.289062 788.910156 C 612 788.910156 788.488281 612.421875 788.488281 394.710938 C 788.488281 177 612 0.511719 394.289062 0.511719 Z M 394.289062 0.511719 " clip-rule="nonzero"/></clipPath><clipPath id="30b4dcb6e4"><path d="M 0.0898438 0.511719 L 788.488281 0.511719 L 788.488281 788.910156 L 0.0898438 788.910156 Z M 0.0898438 0.511719 " clip-rule="nonzero"/></clipPath><clipPath id="e281cc3f5e"><path d="M 394.289062 0.511719 C 176.578125 0.511719 0.0898438 177 0.0898438 394.710938 C 0.0898438 612.421875 176.578125 788.910156 394.289062 788.910156 C 612 788.910156 788.488281 612.421875 788.488281 394.710938 C 788.488281 177 612 0.511719 394.289062 0.511719 Z M 394.289062 0.511719 " clip-rule="nonzero"/></clipPath><clipPath id="0f2203edf1"><rect x="0" width="789" y="0" height="789"/></clipPath><clipPath id="966f8cff51"><path d="M 489.207031 392 L 756.652344 392 L 756.652344 528.21875 L 489.207031 528.21875 Z M 489.207031 392 " clip-rule="nonzero"/></clipPath><clipPath id="45020ee8a3"><rect x="0" width="789" y="0" height="789"/></clipPath></defs><g transform="matrix(1, 0, 0, 1, 11, 10)"><g clip-path="url(#45020ee8a3)"><g clip-path="url(#c1100efd66)"><g clip-path="url(#8301aed110)"><g transform="matrix(1, 0, 0, 1, 0, 0.000000000000040856)"><g clip-path="url(#0f2203edf1)"><g clip-path="url(#30b4dcb6e4)"><g clip-path="url(#e281cc3f5e)"><path fill="#f9fafc" d="M 0.0898438 0.511719 L 788.488281 0.511719 L 788.488281 788.910156 L 0.0898438 788.910156 Z M 0.0898438 0.511719 " fill-opacity="1" fill-rule="nonzero"/></g></g></g></g></g></g><g fill="#576dea" fill-opacity="1"><g transform="translate(39.948951, 524.399156)"><g><path d="M 235.34375 -75.953125 C 235.34375 -55.492188 228.457031 -37.71875 214.6875 -22.625 C 200.914062 -7.539062 179.335938 0 149.953125 0 L 15.34375 0 L 15.34375 -44.859375 L 42.890625 -44.859375 L 42.890625 -210.953125 L 15.34375 -210.953125 L 15.34375 -255.8125 L 148.375 -255.8125 C 171.726562 -255.8125 190.550781 -250.367188 204.84375 -239.484375 C 219.144531 -228.597656 226.296875 -214.101562 226.296875 -196 C 226.296875 -182.613281 222.226562 -170.9375 214.09375 -160.96875 C 205.957031 -151 194.546875 -144.832031 179.859375 -142.46875 L 179.859375 -140.890625 C 198.222656 -138.265625 212.0625 -131.050781 221.375 -119.25 C 230.6875 -107.445312 235.34375 -93.015625 235.34375 -75.953125 Z M 169.625 -182.21875 C 169.625 -193.757812 166.144531 -201.429688 159.1875 -205.234375 C 152.238281 -209.046875 144.039062 -210.953125 134.59375 -210.953125 L 95.640625 -210.953125 L 95.640625 -151.125 L 130.65625 -151.125 C 145.613281 -151.125 155.847656 -154.140625 161.359375 -160.171875 C 166.867188 -166.210938 169.625 -173.5625 169.625 -182.21875 Z M 178.671875 -77.921875 C 178.671875 -99.441406 165.6875 -110.203125 139.71875 -110.203125 L 95.640625 -110.203125 L 95.640625 -44.859375 L 136.171875 -44.859375 C 164.503906 -44.859375 178.671875 -55.878906 178.671875 -77.921875 Z M 178.671875 -77.921875 "/></g></g></g><g fill="#576dea" fill-opacity="1"><g transform="translate(284.742326, 524.399156)"><g><path d="M 229.84375 -172.375 C 229.84375 -143.25 220.332031 -121.535156 201.3125 -107.234375 C 182.289062 -92.941406 160.179688 -85.796875 134.984375 -85.796875 L 95.640625 -85.796875 L 95.640625 -44.859375 L 134.984375 -44.859375 L 134.984375 0 L 15.34375 0 L 15.34375 -44.859375 L 42.890625 -44.859375 L 42.890625 -210.953125 L 15.34375 -210.953125 L 15.34375 -255.8125 L 132.625 -255.8125 C 164.375 -255.8125 188.515625 -248.332031 205.046875 -233.375 C 221.578125 -218.425781 229.84375 -198.09375 229.84375 -172.375 Z M 173.171875 -171.59375 C 173.171875 -184.1875 169.691406 -193.894531 162.734375 -200.71875 C 155.785156 -207.539062 143.519531 -210.953125 125.9375 -210.953125 L 95.640625 -210.953125 L 95.640625 -130.265625 L 125.15625 -130.265625 C 143.257812 -130.265625 155.785156 -134.066406 162.734375 -141.671875 C 169.691406 -149.285156 173.171875 -159.257812 173.171875 -171.59375 Z M 173.171875 -171.59375 "/></g></g></g><g clip-path="url(#966f8cff51)"><path fill="#000000" d="M 566.617188 455.757812 C 566.617188 459.964844 570.019531 463.375 574.214844 463.375 C 578.410156 463.375 581.8125 459.964844 581.8125 455.757812 C 581.8125 451.550781 578.410156 448.136719 574.214844 448.136719 C 570.019531 448.136719 566.617188 451.550781 566.617188 455.757812 Z M 544.128906 455.757812 C 544.128906 459.964844 547.53125 463.375 551.726562 463.375 C 555.921875 463.375 559.324219 459.964844 559.324219 455.757812 C 559.324219 451.550781 555.921875 448.136719 551.726562 448.136719 C 547.53125 448.136719 544.128906 451.550781 544.128906 455.757812 Z M 521.453125 455.757812 C 521.453125 459.964844 524.855469 463.375 529.050781 463.375 C 533.246094 463.375 536.648438 459.964844 536.648438 455.757812 C 536.648438 451.550781 533.246094 448.136719 529.050781 448.136719 C 524.855469 448.136719 521.453125 451.550781 521.453125 455.757812 Z M 548.566406 506.414062 C 544.566406 505.933594 540.628906 504.988281 536.871094 503.605469 C 535.726562 503.1875 534.472656 503.183594 533.328125 503.597656 L 503.609375 514.375 L 512.785156 489.25 C 513.363281 487.65625 513.136719 485.878906 512.167969 484.492188 C 504.855469 473.984375 501.671875 461.191406 503.199219 448.464844 C 504.859375 434.65625 511.789062 422.316406 522.707031 413.726562 C 533.621094 405.136719 547.222656 401.324219 561.003906 402.984375 C 570.050781 404.078125 578.660156 407.535156 585.90625 412.980469 L 592.117188 404.667969 C 583.421875 398.136719 573.089844 393.992188 562.242188 392.675781 C 545.714844 390.679688 529.402344 395.257812 516.3125 405.558594 C 503.214844 415.863281 494.910156 430.660156 492.917969 447.226562 C 491.191406 461.578125 494.464844 476 502.15625 488.148438 L 490.066406 521.257812 C 489.375 523.15625 489.839844 525.277344 491.261719 526.710938 C 492.25 527.703125 493.578125 528.238281 494.929688 528.238281 C 495.519531 528.238281 496.117188 528.132812 496.691406 527.925781 L 535.121094 513.988281 C 539.074219 515.304688 543.171875 516.222656 547.328125 516.722656 C 549.847656 517.027344 552.363281 517.175781 554.863281 517.175781 C 570.945312 517.175781 586.394531 510.96875 598.132812 499.582031 L 590.933594 492.117188 C 579.617188 503.089844 564.175781 508.300781 548.566406 506.414062 Z M 756.5 445.371094 L 756.5 436.710938 L 740.582031 436.710938 L 740.582031 417.96875 L 730.464844 421.25 L 730.464844 436.710938 L 719.605469 436.710938 L 719.605469 445.371094 L 730.464844 445.371094 L 730.464844 482.851562 C 730.464844 495.226562 735.992188 501.40625 747.058594 501.40625 C 750.964844 501.40625 754.113281 500.75 756.5 499.429688 L 756.5 490.769531 C 754.648438 492.171875 752.449219 492.871094 749.898438 492.871094 C 746.566406 492.871094 744.179688 491.964844 742.738281 490.152344 C 741.300781 488.335938 740.582031 485.304688 740.582031 481.0625 L 740.582031 445.371094 Z M 705.59375 468.007812 L 690.351562 470.109375 C 685.664062 470.769531 682.125 471.9375 679.742188 473.605469 C 677.355469 475.277344 676.160156 478.238281 676.160156 482.480469 C 676.160156 485.574219 677.261719 488.101562 679.460938 490.058594 C 681.664062 492.019531 684.59375 492.996094 688.253906 492.996094 C 693.273438 492.996094 697.417969 491.234375 700.6875 487.707031 C 703.957031 484.183594 705.59375 479.71875 705.59375 474.316406 Z M 715.710938 458.855469 L 715.710938 500.046875 L 705.59375 500.046875 L 705.59375 490.152344 L 705.34375 490.152344 C 700.945312 497.738281 694.464844 501.535156 685.910156 501.535156 C 679.617188 501.535156 674.691406 499.863281 671.132812 496.523438 C 667.574219 493.183594 665.796875 488.75 665.796875 483.222656 C 665.796875 471.390625 672.746094 464.503906 686.648438 462.5625 L 705.59375 459.90625 C 705.59375 449.144531 701.253906 443.761719 692.574219 443.761719 C 684.960938 443.761719 678.09375 446.359375 671.96875 451.554688 L 671.96875 441.167969 C 678.175781 437.207031 685.332031 435.230469 693.4375 435.230469 C 708.285156 435.230469 715.710938 443.105469 715.710938 458.855469 Z M 659 461.019531 L 659 500.046875 L 648.886719 500.046875 L 648.886719 463.554688 C 648.886719 450.359375 643.988281 443.761719 634.199219 443.761719 C 629.265625 443.761719 625.109375 445.671875 621.738281 449.484375 C 618.363281 453.296875 616.679688 458.195312 616.679688 464.171875 L 616.679688 500.046875 L 606.558594 500.046875 L 606.558594 406.28125 L 616.679688 406.28125 L 616.679688 447.226562 L 616.925781 447.226562 C 621.777344 439.226562 628.691406 435.230469 637.652344 435.230469 C 651.886719 435.230469 659 443.824219 659 461.019531 " fill-opacity="1" fill-rule="nonzero"/></g></g></g></svg>